<?xml version="1.0" standalone="no"?><svg xmlns:xlink="http://www.w3.org/1999/xlink" xmlns="http://www.w3.org/2000/svg" viewBox="0 0 64 64" preserveAspectRatio="xMaxYMax slice"><g transform="scale(0.14146772767462423)"><rect x="0" y="0" width="452.4" height="452.4" fill="#ffffff"/><rect x="0" y="0" width="75.39999999999999" height="75.39999999999999" fill="#ffffff"/><path d="M 0 37.7 A 37.7 37.7 0 0 1  37.7 0 L 0 37.7 A 37.7 37.7 0 0 0 37.7 0" fill="#44b8c8"/><path d="M 37.7 37.7 A 37.7 37.7 0 0 1  75.4 0 L 37.7 37.7 A 37.7 37.7 0 0 0 75.4 0" fill="#313f65"/><path d="M 37.7 75.4 A 37.7 37.7 0 0 1  75.4 37.7 L 37.7 75.4 A 37.7 37.7 0 0 0 75.4 37.7" fill="#aee0e7"/><path d="M 150.8 75.4 A 75.4 75.4 0 0 1  226.20000000000002 0 L 150.8 75.4 A 75.4 75.4 0 0 0 226.20000000000002 0" fill="#abdfe6"/><rect x="226.2" y="0" width="75.39999999999999" height="75.39999999999999" fill="#ffffff"/><path d="M 226.2 0 A 37.7 37.7 0 0 1  263.9 37.7 L 226.2 0 A 37.7 37.7 0 0 0 263.9 37.7" fill="#989fb2"/><path d="M 226.2 75.4 A 37.7 37.7 0 0 1  263.9 37.7 L 226.2 75.4 A 37.7 37.7 0 0 0 263.9 37.7" fill="#27adbf"/><rect x="301.59999999999997" y="0" width="75.39999999999999" height="75.39999999999999" fill="#ffffff"/><path d="M 301.6 0 A 37.7 37.7 0 0 1  339.3 37.7 L 301.6 0 A 37.7 37.7 0 0 0 339.3 37.7" fill="#8dd4dd"/><path d="M 339.3 37.7 A 37.7 37.7 0 0 1  377 0 L 339.3 37.7 A 37.7 37.7 0 0 0 377 0" fill="#50bdcb"/><path d="M 301.6 75.4 A 37.7 37.7 0 0 1  339.3 37.7 L 301.6 75.4 A 37.7 37.7 0 0 0 339.3 37.7" fill="#49bac9"/><path d="M 0 150.8 A 75.4 75.4 0 0 1  75.4 75.4 L 0 150.8 A 75.4 75.4 0 0 0 75.4 75.4" fill="#8890a6"/><path d="M 75.4 75.4 A 75.4 75.4 0 0 1  150.8 150.8 L 75.4 75.4 A 75.4 75.4 0 0 0 150.8 150.8" fill="#c1c5d0"/><rect x="150.79999999999998" y="75.39999999999999" width="75.39999999999999" height="75.39999999999999" fill="#ffffff"/><path d="M 188.5 113.10000000000001 A 37.7 37.7 0 0 1  226.2 75.4 L 188.5 113.10000000000001 A 37.7 37.7 0 0 0 226.2 75.4" fill="#d6d9e1"/><path d="M 226.2 150.8 A 75.4 75.4 0 0 1  301.6 75.4 L 226.2 150.8 A 75.4 75.4 0 0 0 301.6 75.4" fill="#31b1c2"/><path d="M 377 75.4 A 75.4 75.4 0 0 1  452.4 150.8 L 377 75.4 A 75.4 75.4 0 0 0 452.4 150.8" fill="#a4dce4"/><path d="M 0 226.20000000000002 A 75.4 75.4 0 0 1  75.4 150.8 L 0 226.20000000000002 A 75.4 75.4 0 0 0 75.4 150.8" fill="#38b4c4"/><path d="M 75.4 150.8 A 75.4 75.4 0 0 1  150.8 226.20000000000002 L 75.4 150.8 A 75.4 75.4 0 0 0 150.8 226.20000000000002" fill="#2dafc1"/><rect x="150.79999999999998" y="150.79999999999998" width="75.39999999999999" height="75.39999999999999" fill="#ffffff"/><path d="M 150.8 150.8 A 37.7 37.7 0 0 1  188.5 188.5 L 150.8 150.8 A 37.7 37.7 0 0 0 188.5 188.5" fill="#32b1c2"/><path d="M 188.5 150.8 A 37.7 37.7 0 0 1  226.2 188.5 L 188.5 150.8 A 37.7 37.7 0 0 0 226.2 188.5" fill="#4c5779"/><path d="M 188.5 226.2 A 37.7 37.7 0 0 1  226.2 188.5 L 188.5 226.2 A 37.7 37.7 0 0 0 226.2 188.5" fill="#5fc2d0"/><path d="M 301.6 150.8 A 75.4 75.4 0 0 1  377 226.20000000000002 L 301.6 150.8 A 75.4 75.4 0 0 0 377 226.20000000000002" fill="#48bac9"/><path d="M 377 226.20000000000002 A 75.4 75.4 0 0 1  452.4 150.8 L 377 226.20000000000002 A 75.4 75.4 0 0 0 452.4 150.8" fill="#73cad6"/><path d="M 75.4 301.6 A 75.4 75.4 0 0 1  150.8 226.2 L 75.4 301.6 A 75.4 75.4 0 0 0 150.8 226.2" fill="#626c8a"/><rect x="226.2" y="226.2" width="75.39999999999999" height="75.39999999999999" fill="#ffffff"/><path d="M 226.2 263.9 A 37.7 37.7 0 0 1  263.9 301.59999999999997 L 226.2 263.9 A 37.7 37.7 0 0 0 263.9 301.59999999999997" fill="#e1e3e8"/><path d="M 263.9 301.59999999999997 A 37.7 37.7 0 0 1  301.59999999999997 263.9 L 263.9 301.59999999999997 A 37.7 37.7 0 0 0 301.59999999999997 263.9" fill="#51bdcb"/><path d="M 301.6 301.6 A 75.4 75.4 0 0 1  377 226.2 L 301.6 301.6 A 75.4 75.4 0 0 0 377 226.2" fill="#364369"/><rect x="376.99999999999994" y="226.2" width="75.39999999999999" height="75.39999999999999" fill="#ffffff"/><path d="M 377 263.9 A 37.7 37.7 0 0 1  414.7 226.2 L 377 263.9 A 37.7 37.7 0 0 0 414.7 226.2" fill="#9fdbe3"/><path d="M 414.7 263.9 A 37.7 37.7 0 0 1  452.4 226.2 L 414.7 263.9 A 37.7 37.7 0 0 0 452.4 226.2" fill="#99a0b3"/><path d="M 377 263.9 A 37.7 37.7 0 0 1  414.7 301.59999999999997 L 377 263.9 A 37.7 37.7 0 0 0 414.7 301.59999999999997" fill="#49bac9"/><path d="M 0 301.6 A 75.4 75.4 0 0 1  75.4 377 L 0 301.6 A 75.4 75.4 0 0 0 75.4 377" fill="#7fcfd9"/><rect x="75.39999999999999" y="301.59999999999997" width="75.39999999999999" height="75.39999999999999" fill="#ffffff"/><path d="M 75.4 339.3 A 37.7 37.7 0 0 1  113.10000000000001 377 L 75.4 339.3 A 37.7 37.7 0 0 0 113.10000000000001 377" fill="#6ec8d4"/><path d="M 113.1 339.3 A 37.7 37.7 0 0 1  150.8 377 L 113.1 339.3 A 37.7 37.7 0 0 0 150.8 377" fill="#2cafc0"/><rect x="301.59999999999997" y="301.59999999999997" width="75.39999999999999" height="75.39999999999999" fill="#ffffff"/><path d="M 377 377 A 75.4 75.4 0 0 1  452.4 301.6 L 377 377 A 75.4 75.4 0 0 0 452.4 301.6" fill="#6d7792"/><rect x="0" y="376.99999999999994" width="75.39999999999999" height="75.39999999999999" fill="#ffffff"/><path d="M 0 414.7 A 37.7 37.7 0 0 1  37.7 377 L 0 414.7 A 37.7 37.7 0 0 0 37.7 377" fill="#8189a1"/><path d="M 37.7 414.7 A 37.7 37.7 0 0 1  75.4 452.4 L 37.7 414.7 A 37.7 37.7 0 0 0 75.4 452.4" fill="#dcdee5"/><rect x="75.39999999999999" y="376.99999999999994" width="75.39999999999999" height="75.39999999999999" fill="#ffffff"/><path d="M 75.4 377 A 37.7 37.7 0 0 1  113.10000000000001 414.7 L 75.4 377 A 37.7 37.7 0 0 0 113.10000000000001 414.7" fill="#96d7e0"/><path d="M 113.1 414.7 A 37.7 37.7 0 0 1  150.8 452.4 L 113.1 414.7 A 37.7 37.7 0 0 0 150.8 452.4" fill="#dfe1e7"/><rect x="150.79999999999998" y="376.99999999999994" width="75.39999999999999" height="75.39999999999999" fill="#ffffff"/><path d="M 150.8 414.7 A 37.7 37.7 0 0 1  188.5 377 L 150.8 414.7 A 37.7 37.7 0 0 0 188.5 377" fill="#354268"/><path d="M 226.2 377 A 75.4 75.4 0 0 1  301.6 452.4 L 226.2 377 A 75.4 75.4 0 0 0 301.6 452.4" fill="#e1f4f6"/><rect x="301.59999999999997" y="376.99999999999994" width="75.39999999999999" height="75.39999999999999" fill="#ffffff"/><path d="M 339.3 377 A 37.7 37.7 0 0 1  377 414.7 L 339.3 377 A 37.7 37.7 0 0 0 377 414.7" fill="#858da4"/><path d="M 301.6 452.4 A 37.7 37.7 0 0 1  339.3 414.7 L 301.6 452.4 A 37.7 37.7 0 0 0 339.3 414.7" fill="#8a92a8"/><path d="M 339.3 414.7 A 37.7 37.7 0 0 1  377 452.4 L 339.3 414.7 A 37.7 37.7 0 0 0 377 452.4" fill="#a9dee6"/></g></svg>